<svg width="8" height="8" viewBox="0 0 8 8" fill="none" xmlns="http://www.w3.org/2000/svg">
<path fill-rule="evenodd" clip-rule="evenodd" d="M5.0575 4L7.525 1.5325C7.6675 1.3975 7.75 1.21 7.75 1C7.75 0.5875 7.4125 0.25 7 0.25C6.79 0.25 6.6025 0.3325 6.4675 0.4675L4 2.9425L1.5325 0.4675C1.3975 0.3325 1.21 0.25 1 0.25C0.5875 0.25 0.25 0.5875 0.25 1C0.25 1.21 0.3325 1.3975 0.4675 1.5325L2.9425 4L0.475 6.4675C0.3325 6.6025 0.25 6.79 0.25 7C0.25 7.4125 0.5875 7.75 1 7.75C1.21 7.75 1.3975 7.6675 1.5325 7.5325L4 5.0575L6.4675 7.525C6.6025 7.6675 6.79 7.75 7 7.75C7.4125 7.75 7.75 7.4125 7.75 7C7.75 6.79 7.6675 6.6025 7.5325 6.4675L5.0575 4Z" fill="#459BDA"/>
</svg>
