<svg width="42" height="43" viewBox="0 0 42 43" fill="none" xmlns="http://www.w3.org/2000/svg">
<g filter="url(#filter0_dd_3952_9256)">
<rect x="3" y="2.25" width="36" height="36" rx="18" fill="#7DA4C1" shape-rendering="crispEdges"/>
<path d="M27.3906 24.418C27.4226 24.45 27.3586 24.562 27.1986 24.754C27.0386 24.9353 26.8146 25.1007 26.5266 25.25C26.2492 25.3993 25.9399 25.474 25.5986 25.474C25.2359 25.474 24.8732 25.3513 24.5106 25.106L24.1266 24.818C23.3372 25.2553 22.4999 25.474 21.6146 25.474C20.5692 25.474 19.6306 25.2447 18.7986 24.786C17.9666 24.3273 17.3159 23.6927 16.8466 22.882C16.3772 22.0607 16.1426 21.1273 16.1426 20.082C16.1426 19.0473 16.3772 18.1193 16.8466 17.298C17.3159 16.4767 17.9666 15.8367 18.7986 15.378C19.6306 14.9087 20.5692 14.674 21.6146 14.674C22.6599 14.674 23.5932 14.9033 24.4146 15.362C25.2466 15.8207 25.8919 16.4607 26.3506 17.282C26.8199 18.0927 27.0546 19.0207 27.0546 20.066C27.0546 21.1433 26.7452 22.1353 26.1266 23.042L27.3906 24.418ZM21.5346 22.626C21.7266 22.626 21.9292 22.578 22.1426 22.482L21.6786 21.954C21.5506 21.698 21.4866 21.458 21.4866 21.234C21.4866 20.914 21.6146 20.642 21.8706 20.418L21.9506 20.338C22.1639 20.1673 22.3932 20.082 22.6386 20.082C22.8839 20.082 23.1239 20.162 23.3586 20.322L23.8226 20.802C23.9506 20.578 24.0146 20.3167 24.0146 20.018C24.0146 19.282 23.7959 18.6793 23.3586 18.21C22.9212 17.7407 22.3559 17.506 21.6626 17.506C20.9479 17.506 20.3772 17.746 19.9506 18.226C19.5239 18.6953 19.3106 19.314 19.3106 20.082C19.3106 20.818 19.5186 21.426 19.9346 21.906C20.3506 22.386 20.8839 22.626 21.5346 22.626Z" fill="white"/>
</g>
<defs>
<filter id="filter0_dd_3952_9256" x="0" y="0.25" width="42" height="42" filterUnits="userSpaceOnUse" color-interpolation-filters="sRGB">
<feFlood flood-opacity="0" result="BackgroundImageFix"/>
<feColorMatrix in="SourceAlpha" type="matrix" values="0 0 0 0 0 0 0 0 0 0 0 0 0 0 0 0 0 0 127 0" result="hardAlpha"/>
<feOffset dy="1"/>
<feGaussianBlur stdDeviation="1"/>
<feComposite in2="hardAlpha" operator="out"/>
<feColorMatrix type="matrix" values="0 0 0 0 0 0 0 0 0 0 0 0 0 0 0 0 0 0 0.06 0"/>
<feBlend mode="normal" in2="BackgroundImageFix" result="effect1_dropShadow_3952_9256"/>
<feColorMatrix in="SourceAlpha" type="matrix" values="0 0 0 0 0 0 0 0 0 0 0 0 0 0 0 0 0 0 127 0" result="hardAlpha"/>
<feOffset dy="1"/>
<feGaussianBlur stdDeviation="1.5"/>
<feComposite in2="hardAlpha" operator="out"/>
<feColorMatrix type="matrix" values="0 0 0 0 0 0 0 0 0 0 0 0 0 0 0 0 0 0 0.1 0"/>
<feBlend mode="normal" in2="effect1_dropShadow_3952_9256" result="effect2_dropShadow_3952_9256"/>
<feBlend mode="normal" in="SourceGraphic" in2="effect2_dropShadow_3952_9256" result="shape"/>
</filter>
</defs>
</svg>
